<?xml version="1.0" encoding="UTF-8" standalone="no"?>
<!-- Created with Inkscape (http://www.inkscape.org/) -->

<svg
   width="700mm"
   height="200mm"
   viewBox="0 0 700 200"
   version="1.1"
   id="svg5"
   xml:space="preserve"
   xmlns="http://www.w3.org/2000/svg"
   xmlns:svg="http://www.w3.org/2000/svg"><defs
     id="defs2"><rect
       x="1255.9727"
       y="185.04927"
       width="2319.0217"
       height="1078.7979"
       id="rect1408" /><rect
       x="905.56024"
       y="114.17934"
       width="1665.4434"
       height="590.58276"
       id="rect4304" /></defs><g
     id="layer1"><g
       id="g1996"
       transform="matrix(0.9016586,0,0,0.9016586,-111.00366,-47.303537)"><path
         style="fill:#61bc54;fill-opacity:1;stroke:none;stroke-width:1.05833"
         d="m 175.6543,111.3927 c -2.06364,-1.73351 -3.22868,-4.79173 -2.64616,-7.99558 0.58252,-3.20385 2.91259,-6.553338 6.11645,-9.611563 3.20385,-3.058225 7.28149,-5.82519 12.30571,-7.499933 5.02423,-1.674742 10.99505,-2.257261 16.74743,-1.674742 5.75237,0.58252 11.2863,2.330076 15.94645,4.951412 4.66015,2.621335 8.44653,6.116449 11.14068,10.485346 2.69415,4.36889 4.29607,9.61156 5.09704,14.7086 0.80096,5.09704 0.80096,10.04845 -0.14563,13.83482 -0.9466,3.78638 -2.83978,6.40771 -5.38453,7.75471 -2.54474,1.347 -5.88373,1.4229 -8.35152,0.92039 -2.46779,-0.50251 -4.43408,-1.63933 -5.38063,-2.78437 -0.94655,-1.14504 -1.07446,-2.4772 -1.4523,-6.7076 -0.37785,-4.23041 -1.00879,-11.39208 -2.78047,-16.42827 -1.77168,-5.0362 -4.68428,-7.94879 -8.83473,-9.33228 -4.15045,-1.38348 -9.53875,-1.23786 -13.03386,0.5097 -3.49512,1.74755 -5.09704,5.09704 -6.66387,7.26167 -1.56683,2.16463 -3.2924,3.26839 -5.46668,3.5101 -2.17429,0.24172 -5.14973,-0.1689 -7.21338,-1.90241 z"
         id="path519" /><path
         style="fill:#61bc54;fill-opacity:1;stroke:none;stroke-width:1.05833"
         d="m 176.06637,160.26553 c -0.58253,-1.82037 -2.9126,-4.58733 -4.29608,-7.71837 -1.38349,-3.13104 -1.82037,-6.62615 -1.38348,-9.68438 0.43689,-3.05823 1.74755,-5.67956 3.78041,-7.54252 2.03285,-1.86296 4.95705,-3.03538 6.62726,-4.14183 1.67022,-1.10645 2.48979,-2.42737 1.8958,-4.03817 -0.594,-1.61079 -2.82981,-4.19415 -6.03753,-5.59493 -3.20773,-1.40079 -7.57662,-1.83768 -11.94551,-0.89109 -4.36889,0.9466 -8.73779,3.27667 -12.30572,6.91742 -3.56792,3.64074 -6.33489,8.59215 -7.20866,12.88823 -0.87378,4.29608 0.14562,7.93683 1.74755,11.06787 1.60193,3.13104 3.78637,5.75236 6.73722,7.58145 2.95086,1.82908 6.68364,2.87023 10.24566,3.52392 3.56202,0.65368 6.97877,0.92701 9.26966,0.62678 2.2909,-0.30023 3.45594,-1.17401 2.87342,-2.99438 z"
         id="path523" /><path
         style="fill:#61bc54;fill-opacity:1;stroke:none;stroke-width:1.05833"
         d="m 166.40809,195.91713 c 0.39017,-1.11992 1.21564,-3.48926 2.61661,-4.94672 1.40097,-1.45747 3.73464,-2.34742 5.82324,-3.02462 2.08859,-0.6772 4.36423,-1.28667 5.48938,-2.18497 1.12516,-0.8983 1.24126,-2.70019 0.9174,-4.03677 -0.32385,-1.33657 -1.08697,-2.66807 -2.62301,-3.60526 -1.53604,-0.9372 -4.00591,-1.7398 -7.12416,-2.12875 -3.11825,-0.38895 -6.92845,-0.37476 -10.35948,0.36047 -3.43104,0.73523 -6.48926,2.19152 -9.32904,4.5216 -2.83979,2.33008 -5.46112,5.53393 -6.8446,9.3203 -1.38348,3.78637 -1.52911,8.15527 -0.58252,12.2329 0.9466,4.07763 2.98541,7.864 5.46112,10.26689 2.4757,2.4029 5.3883,3.4223 9.35786,3.86592 3.96956,0.44363 9.0058,0.31121 11.49184,-0.40906 2.48604,-0.72026 2.37235,-3.54484 1.57037,-4.72398 -0.80199,-1.17914 -2.51078,-2.42512 -3.60421,-3.9776 -1.09343,-1.55249 -1.89287,-3.70789 -2.27187,-5.50617 -0.37901,-1.79829 -0.37906,-3.35134 -0.37909,-4.12782 -2e-5,-0.77648 -2e-5,-0.77644 0.39016,-1.89636 z"
         id="path527" /><path
         style="fill:#61bc54;fill-opacity:1;stroke:none;stroke-width:1.05833"
         d="m 223.03971,156.66734 c 0.2262,-1.04967 0.70392,-3.26654 1.64341,-4.72368 0.93948,-1.45715 2.41183,-2.38795 4.19199,-3.17333 1.78015,-0.78537 4.03889,-1.48259 6.92536,-1.80615 2.88646,-0.32356 6.48012,-0.29779 10.03985,0.31471 3.55973,0.61251 7.0867,1.81176 9.79677,3.79486 2.71008,1.9831 4.60326,4.75007 5.91393,8.02673 1.31067,3.27667 2.03882,7.06305 2.03882,10.48535 0,3.4223 -0.72815,6.48052 -2.33008,9.61156 -1.60192,3.13104 -4.07762,6.33489 -7.49992,8.44653 -3.4223,2.11163 -7.79119,3.13104 -11.94164,3.4223 -4.15045,0.29126 -8.08245,-0.14563 -10.09775,-1.33706 -2.01529,-1.19144 -2.12341,-3.32595 -0.98579,-5.62144 1.13763,-2.2955 3.51468,-5.10921 4.88795,-7.31015 1.37327,-2.20094 1.89665,-4.40809 2.06066,-6.27574 0.16401,-1.86765 0.0742,-3.84112 -1.17094,-5.4891 -1.24519,-1.64798 -3.77345,-3.04079 -5.81387,-3.79554 -2.04042,-0.75476 -4.08354,-1.03733 -5.21828,-1.48503 -1.13473,-0.44771 -1.94177,-1.28398 -2.30422,-1.65957 -0.36245,-0.37559 -0.36245,-0.37558 -0.13625,-1.42525 z"
         id="path531" /><path
         style="fill:#6c5d53;fill-opacity:1;stroke:none;stroke-width:1.05833"
         d="m 197.77886,140.4872 c 0.2776,-5.92531 0.42322,-16.41065 0.71448,-22.52711 0.29126,-6.11645 0.72815,-7.864 1.63958,-8.91554 0.91143,-1.05155 2.30112,-1.40803 3.46085,-1.43189 1.15974,-0.0239 2.1252,0.28789 2.80852,0.94882 0.68331,0.66094 1.33859,1.75311 1.5883,3.89745 0.2497,2.14434 0.0938,5.34157 -0.0495,14.61303 -0.1433,9.27146 -0.27417,24.6223 -0.26905,33.07205 0.005,8.44974 0.14619,10.0016 1.02786,10.98089 0.88168,0.97929 2.60507,1.41135 4.24079,1.47438 1.63571,0.063 3.35138,-0.20094 4.88873,-0.92607 1.53735,-0.72514 2.91023,-1.92352 4.36131,-2.86556 1.45108,-0.94204 3.00294,-1.64745 4.12175,-1.42127 1.1188,0.22617 1.94616,1.62299 2.10892,2.91246 0.16275,1.28946 -0.10122,2.87316 -1.61685,4.86665 -1.51563,1.9935 -4.2832,4.39703 -6.25518,6.10324 -1.97197,1.70621 -3.19757,2.75731 -4.63479,3.59673 -1.43723,0.83942 -3.17513,1.53916 -4.53494,2.13028 -1.35982,0.59113 -2.98389,1.38702 -3.28344,3.15526 -0.29954,1.76824 -0.42823,5.07774 -0.4225,11.06758 0.006,5.98983 0.14567,14.66616 0.47779,19.70775 0.33211,5.04158 1.03138,6.91791 2.15289,7.53584 1.12151,0.61794 2.96234,0.74158 5.37641,0.65933 2.41406,-0.0823 5.42311,-0.369 7.50305,-0.4719 2.07995,-0.1029 3.73048,0.0127 4.32022,0.5785 0.58975,0.56581 1.07458,1.672 1.35497,2.92149 0.28039,1.24949 0.39411,2.72849 -0.0452,4.03259 -0.43936,1.3041 -1.69264,2.73008 -7.96282,3.15031 -6.27018,0.42024 -17.98519,0.32073 -25.84694,0.24791 -7.86174,-0.0728 -11.87058,-0.11896 -14.60315,-0.57892 -2.73256,-0.45996 -4.18887,-1.33373 -4.86286,-2.58716 -0.67399,-1.25342 -0.55581,-3.03516 -0.0669,-4.25115 0.48896,-1.21599 1.50855,-2.26812 2.71689,-2.73005 1.20833,-0.46193 2.96601,-0.69541 5.97453,-0.74035 3.00852,-0.0449 7.28785,0.0962 9.35303,-1.53112 2.06518,-1.6273 1.91954,-5.02397 1.82225,-7.49432 -0.0973,-2.47036 -0.15425,-4.26486 -0.96965,-5.33057 -0.8154,-1.06572 -2.41597,-1.80868 -4.42814,-3.25483 -2.01218,-1.44615 -4.46131,-3.60832 -6.33536,-5.33912 -1.87404,-1.7308 -3.17708,-3.03384 -4.11986,-4.48632 -0.94277,-1.45248 -1.52529,-3.05441 -1.38918,-4.2805 0.13611,-1.2261 1.21192,-2.29627 2.29004,-2.6467 1.07812,-0.35042 2.52984,-0.35045 3.98385,0.45051 1.45401,0.80095 2.9103,2.40287 4.39874,3.49348 1.48844,1.09061 3.09832,1.70393 4.37931,1.77548 1.28099,0.0716 2.79112,-0.49144 3.2849,-1.66632 0.49379,-1.17487 0.98745,-3.35585 1.15894,-9.3454 0.17149,-5.98955 0.027,-15.81501 -1.10512,-21.41915 -1.13211,-5.60414 -3.25985,-6.99218 -5.82554,-9.0538 -2.56569,-2.06161 -5.58649,-4.80903 -7.72852,-6.95574 -2.14202,-2.14671 -3.41173,-3.69858 -3.99314,-5.0979 -0.5814,-1.39932 -0.4524,-2.90376 0.0622,-3.68319 0.51463,-0.77943 1.46775,-1.27501 2.57188,-1.25041 1.10413,0.0246 2.49009,0.517 4.38919,1.61113 1.89911,1.09414 4.30292,2.78771 6.12923,3.86371 1.8263,1.07599 3.81041,1.80486 4.40523,1.26549 0.59481,-0.53936 1.00438,-1.90466 1.28198,-7.82998 z"
         id="path584" /><text
         xml:space="preserve"
         transform="matrix(0.15689594,0,0,0.15689594,131.49677,72.261737)"
         id="text4302"
         style="font-weight:bold;font-size:302.362px;line-height:2;font-family:'Josefin Sans';-inkscape-font-specification:'Josefin Sans Bold';text-align:center;white-space:pre;shape-inside:url(#rect4304);display:inline;fill:#7d614f;fill-opacity:1;stroke:none;stroke-width:4" /></g><g
       aria-label="Forester"
       transform="matrix(0.30324629,0,0,0.40862283,-228.67925,-207.17878)"
       id="text1406"
       style="font-weight:bold;font-size:533.333px;line-height:2;font-family:Coiny;-inkscape-font-specification:'Coiny Bold';text-align:center;white-space:pre;shape-inside:url(#rect1408);display:inline;fill:#4d4d4d;stroke-width:4"><path
         d="m 1372.7727,796.11509 q 0,27.2 -12,41.6 -12,14 -34.8,14 -21.6,0 -33.6,-12.8 -12,-13.2 -12,-44.4 v -168.8 q 0,-12.8 3.2,-22 3.6,-9.6 10,-15.2 6.4,-5.6 14.4,-8 8,-2.8 18,-2.8 h 131.2 q 23.2,0 34.4,7.2 11.6,7.2 11.6,26 0,17.6 -10,24.8 -9.6,6.8 -32,6.8 h -88.4 v 46.8 h 70.4 q 10.8,0 18,1.6 7.6,1.6 12,5.6 4.8,3.6 6.4,9.2 2,5.2 2,13.6 0,13.6 -10,19.6 -10,5.6 -32,5.6 h -66.8 z"
         style="font-size:400px;text-align:start;fill:#4d4d4d"
         id="path2188" /><path
         d="m 1646.372,756.91509 q 0,-20.8 -5.2,-36.4 -5.2,-16 -15.2,-16 -6.8,0 -12,8 -5.2,8 -7.6,19.6 -2.4,11.6 -2.4,24.8 0,20.4 5.6,36 5.6,15.2 16,15.2 10.4,0 15.6,-15.2 5.2,-15.2 5.2,-36 z m -20.8,97.6 q -31.2,0 -56.4,-11.2 -24.8,-11.2 -40,-33.6 -14.8,-22.4 -14.8,-52.4 0,-45.6 31.2,-72.4 31.2,-26.8 80,-26.8 48.8,0 79.6,26.8 30.8,26.8 30.8,72.4 0,45.2 -31.6,71.2 -31.2,26 -78.8,26 z"
         style="font-size:400px;text-align:start;fill:#4d4d4d"
         id="path2190" /><path
         d="m 1855.5715,808.91509 q 0,24 -10,33.6 -10,9.2 -35.6,9.2 -23.6,0 -32,-10.8 -8.4,-11.2 -8.4,-36.4 v -98.4 q 0,-13.6 4.8,-23.6 4.8,-10.4 14,-16 9.2,-5.6 21.6,-5.6 30.4,0 40,17.6 23.2,-17.6 44.8,-17.6 42,0 42,40 0,16 -9.2,26 -9.2,10 -24,10 -8.8,0 -14.4,-3.6 -5.2,-3.6 -10,-7.2 -4.4,-3.6 -10.4,-3.6 -8.8,0 -13.2,6 z"
         style="font-size:400px;text-align:start;fill:#4d4d4d"
         id="path2192" /><path
         d="m 2060.3706,854.11509 q -48.8,0 -80.8,-25.2 -31.6,-25.2 -31.6,-68.8 0,-47.2 31.2,-74.4 31.6,-27.6 81.2,-27.6 46.8,0 68.4,16.8 22,16.4 22,45.2 0,5.6 -1.6,10.8 -1.2,5.2 -4.4,10.4 -2.8,4.8 -8,9.2 -4.8,4 -11.2,7.6 -6.4,3.2 -15.2,5.2 -8.8,1.6 -18.8,1.6 l -56.4,0.4 q 4,12.8 14.4,20.4 10.4,7.2 26.4,7.2 17.2,0 35.2,-4.4 7.6,-2 16.4,-6.4 9.2,-4.4 13.2,-4.4 6.8,0 10.4,4 4,4 4,10 0,7.2 -6.4,17.6 -6.4,10 -18,20.4 -11.2,10 -30,17.2 -18.8,7.2 -40.4,7.2 z m -27.2,-114.4 q 27.6,-0.4 30,-0.4 6,0 8.8,-7.2 2,-5.2 2,-14.4 0,-25.2 -15.2,-25.2 -5.6,0 -11.2,6 -5.2,6 -9.2,17.2 -4,10.8 -5.2,24 z"
         style="font-size:400px;text-align:start;fill:#4d4d4d"
         id="path2194" /><path
         d="m 2282.3703,658.11509 q 37.2,0 62,15.2 24.8,15.2 24.8,33.2 0,5.2 -4.4,9.6 -4.4,4.4 -11.2,4.4 -6,0 -13.2,-4 -7.2,-4.4 -13.6,-9.2 -6.4,-4.8 -16.8,-8.8 -10.4,-4 -22,-4 -15.6,0 -15.6,9.6 0,6.8 8,10.8 8,4 23.2,8.4 15.6,4.4 23.6,8.4 30,11.6 41.2,25.2 11.2,13.2 11.2,35.2 0,10.8 -6,21.6 -6,10.4 -18,20 -12,9.2 -32.8,15.2 -20.4,5.6 -46.8,5.6 -51.6,0 -77.2,-23.6 -12.4,-11.6 -12.4,-24 0,-7.6 4.8,-12 5.2,-4.4 14.4,-4.4 9.2,0 28,9.2 18.8,8.8 34.8,8.8 22,0 22,-10.8 0,-5.6 -11.6,-8.8 -11.6,-3.6 -30.4,-8.4 -18.8,-4.8 -30,-12 -17.6,-7.6 -24.8,-18.8 -6.8,-11.6 -6.8,-28 0,-28 26.4,-45.6 26.8,-18 69.2,-18 z"
         style="font-size:400px;text-align:start;fill:#4d4d4d"
         id="path2196" /><path
         d="m 2425.1695,766.11509 v -47.2 q -10,-0.4 -16,-3.2 -6,-3.2 -8.8,-8 -2.4,-4.8 -2.4,-12 0,-22.8 27.6,-24.8 v -37.2 q 0,-15.2 22,-27.2 22,-12.4 43.6,-12.4 13.2,0 17.2,7.6 4,7.6 4,22.8 l 0.4,46 h 10.8 q 22,0 30,6 8.4,5.6 8.4,20.8 0,6.4 -2.4,10.8 -2.4,4.4 -8,6.8 -5.2,2.4 -12.8,3.6 -7.6,0.8 -18.8,0.8 h -7.2 v 44 q 0,6.4 0.4,10.8 0.8,4 2,6.4 1.2,2.4 3.2,3.2 2.4,0.8 5.6,0.8 4.8,0 8,-3.2 3.2,-3.6 4.8,-7.6 2,-4.4 4.8,-7.6 3.2,-3.6 7.2,-3.6 9.2,0 14,4.4 5.2,4.4 5.2,10.8 0,10.8 -4.4,23.2 -4,12.4 -12,24 -8,11.6 -22.4,19.2 -14,7.6 -31.6,7.6 -39.6,0 -56,-20 -16.4,-20 -16.4,-65.6 z"
         style="font-size:400px;text-align:start;fill:#4d4d4d"
         id="path2198" /><path
         d="m 2709.5687,854.11509 q -48.8,0 -80.8,-25.2 -31.6,-25.2 -31.6,-68.8 0,-47.2 31.2,-74.4 31.6,-27.6 81.2,-27.6 46.8,0 68.4,16.8 22,16.4 22,45.2 0,5.6 -1.6,10.8 -1.2,5.2 -4.4,10.4 -2.8,4.8 -8,9.2 -4.8,4 -11.2,7.6 -6.4,3.2 -15.2,5.2 -8.8,1.6 -18.8,1.6 l -56.4,0.4 q 4,12.8 14.4,20.4 10.4,7.2 26.4,7.2 17.2,0 35.2,-4.4 7.6,-2 16.4,-6.4 9.2,-4.4 13.2,-4.4 6.8,0 10.4,4 4,4 4,10 0,7.2 -6.4,17.6 -6.4,10 -18,20.4 -11.2,10 -30,17.2 -18.8,7.2 -40.4,7.2 z m -27.2,-114.4 q 27.6,-0.4 30,-0.4 6,0 8.8,-7.2 2,-5.2 2,-14.4 0,-25.2 -15.2,-25.2 -5.6,0 -11.2,6 -5.2,6 -9.2,17.2 -4,10.8 -5.2,24 z"
         style="font-size:400px;text-align:start;fill:#4d4d4d"
         id="path2200" /><path
         d="m 2923.5685,808.91509 q 0,24 -10,33.6 -10,9.2 -35.6,9.2 -23.6,0 -32,-10.8 -8.4,-11.2 -8.4,-36.4 v -98.4 q 0,-13.6 4.8,-23.6 4.8,-10.4 14,-16 9.2,-5.6 21.6,-5.6 30.4,0 40,17.6 23.2,-17.6 44.8,-17.6 42,0 42,40 0,16 -9.2,26 -9.2,10 -24,10 -8.8,0 -14.4,-3.6 -5.2,-3.6 -10,-7.2 -4.4,-3.6 -10.4,-3.6 -8.8,0 -13.2,6 z"
         style="font-size:400px;text-align:start;fill:#4d4d4d"
         id="path2202" /></g><g
       aria-label="web-based visualizations  of decision trees"
       id="text1584"
       style="font-weight:bold;font-size:31.75px;line-height:1;font-family:Coiny;-inkscape-font-specification:'Coiny Bold';fill:#4d4d4d;stroke-width:1.05833"
       transform="matrix(0.82046466,0,0,0.82046466,-33.60543,-11.444469)"><path
         d="m 243.49376,226.30776 q -0.79375,0 -1.36525,-0.381 -0.5715,-0.41275 -0.92075,-1.27 l -4.60375,-11.7475 q -0.28575,-0.762 -0.1905,-1.3335 0.127,-0.60325 0.60325,-0.9525 0.47625,-0.34925 1.27,-0.34925 0.6985,0 1.143,0.34925 0.4445,0.3175 0.762,1.23825 l 3.84175,10.57275 h -0.73025 l 3.96875,-10.82675 q 0.254,-0.6985 0.66675,-1.016 0.4445,-0.3175 1.143,-0.3175 0.6985,0 1.143,0.34925 0.4445,0.3175 0.66675,0.98425 l 3.90525,10.82675 h -0.66675 l 3.8735,-10.668 q 0.3175,-0.85725 0.79375,-1.17475 0.508,-0.3175 1.11125,-0.3175 0.762,0 1.17475,0.381 0.41275,0.381 0.47625,0.98425 0.0635,0.5715 -0.22225,1.27 l -4.572,11.7475 q -0.3175,0.8255 -0.92075,1.23825 -0.5715,0.41275 -1.36525,0.41275 -0.79375,0 -1.397,-0.41275 -0.5715,-0.41275 -0.889,-1.23825 l -4.15925,-11.01725 h 1.80975 l -4.064,10.9855 q -0.3175,0.85725 -0.889,1.27 -0.5715,0.41275 -1.397,0.41275 z"
         style="font-family:Nunito;-inkscape-font-specification:'Nunito Bold';fill:#4d4d4d"
         id="path2205" /><path
         d="m 271.90996,226.37126 q -2.63525,0 -4.54025,-0.98425 -1.905,-0.98425 -2.95275,-2.794 -1.016,-1.80975 -1.016,-4.28625 0,-2.413 0.98425,-4.22275 1.016,-1.80975 2.76225,-2.82575 1.778,-1.04775 4.03225,-1.04775 1.651,0 2.95275,0.53975 1.3335,0.53975 2.25425,1.55575 0.9525,1.016 1.42875,2.4765 0.508,1.42875 0.508,3.2385 0,0.5715 -0.41275,0.889 -0.381,0.28575 -1.11125,0.28575 h -10.19175 v -2.286 h 8.92175 l -0.508,0.47625 q 0,-1.4605 -0.4445,-2.44475 -0.41275,-0.98425 -1.23825,-1.49225 -0.79375,-0.53975 -2.00025,-0.53975 -1.3335,0 -2.286,0.635 -0.92075,0.60325 -1.42875,1.74625 -0.47625,1.11125 -0.47625,2.667 v 0.22225 q 0,2.6035 1.2065,3.90525 1.23825,1.27 3.6195,1.27 0.8255,0 1.8415,-0.1905 1.04775,-0.22225 1.9685,-0.73025 0.66675,-0.381 1.17475,-0.3175 0.508,0.0317 0.79375,0.34925 0.3175,0.3175 0.381,0.79375 0.0635,0.4445 -0.1905,0.92075 -0.22225,0.47625 -0.79375,0.8255 -1.11125,0.6985 -2.57175,1.04775 -1.42875,0.3175 -2.667,0.3175 z"
         style="font-family:Nunito;-inkscape-font-specification:'Nunito Bold';fill:#4d4d4d"
         id="path2207" /><path
         d="m 290.4202,226.37126 q -1.9685,0 -3.46075,-0.98425 -1.4605,-0.98425 -1.93675,-2.63525 l 0.34925,-0.79375 v 2.31775 q 0,0.98425 -0.508,1.524 -0.508,0.508 -1.42875,0.508 -0.9525,0 -1.4605,-0.508 -0.508,-0.53975 -0.508,-1.524 v -18.8595 q 0,-0.98425 0.508,-1.49225 0.508,-0.508 1.4605,-0.508 0.9525,0 1.4605,0.508 0.53975,0.508 0.53975,1.49225 v 8.255 h -0.381 q 0.508,-1.55575 1.9685,-2.50825 1.4605,-0.9525 3.39725,-0.9525 2.06375,0 3.58775,0.98425 1.524,0.98425 2.38125,2.794 0.85725,1.778 0.85725,4.28625 0,2.4765 -0.85725,4.318 -0.85725,1.80975 -2.413,2.794 -1.524,0.98425 -3.556,0.98425 z m -1.11125,-3.01625 q 1.17475,0 2.06375,-0.5715 0.889,-0.5715 1.36525,-1.68275 0.508,-1.143 0.508,-2.82575 0,-2.54 -1.0795,-3.77825 -1.0795,-1.27 -2.8575,-1.27 -1.17475,0 -2.06375,0.5715 -0.889,0.53975 -1.397,1.68275 -0.47625,1.11125 -0.47625,2.794 0,2.50825 1.0795,3.81 1.0795,1.27 2.8575,1.27 z"
         style="font-family:Nunito;-inkscape-font-specification:'Nunito Bold';fill:#4d4d4d"
         id="path2209" /><path
         d="m 302.45339,219.13226 q -0.6985,0 -1.17475,-0.4445 -0.4445,-0.47625 -0.4445,-1.143 0,-0.6985 0.4445,-1.143 0.47625,-0.4445 1.17475,-0.4445 h 6.76275 q 0.66675,0 1.11125,0.4445 0.47625,0.4445 0.47625,1.143 0,0.66675 -0.47625,1.143 -0.4445,0.4445 -1.11125,0.4445 z"
         style="font-family:Nunito;-inkscape-font-specification:'Nunito Bold';fill:#4d4d4d"
         id="path2211" /><path
         d="m 323.72583,226.37126 q -1.9685,0 -3.46075,-0.98425 -1.4605,-0.98425 -1.93675,-2.63525 l 0.34925,-0.79375 v 2.31775 q 0,0.98425 -0.508,1.524 -0.508,0.508 -1.42875,0.508 -0.9525,0 -1.4605,-0.508 -0.508,-0.53975 -0.508,-1.524 v -18.8595 q 0,-0.98425 0.508,-1.49225 0.508,-0.508 1.4605,-0.508 0.9525,0 1.4605,0.508 0.53975,0.508 0.53975,1.49225 v 8.255 h -0.381 q 0.508,-1.55575 1.9685,-2.50825 1.4605,-0.9525 3.39725,-0.9525 2.06375,0 3.58775,0.98425 1.524,0.98425 2.38125,2.794 0.85725,1.778 0.85725,4.28625 0,2.4765 -0.85725,4.318 -0.85725,1.80975 -2.413,2.794 -1.524,0.98425 -3.556,0.98425 z m -1.11125,-3.01625 q 1.17475,0 2.06375,-0.5715 0.889,-0.5715 1.36525,-1.68275 0.508,-1.143 0.508,-2.82575 0,-2.54 -1.0795,-3.77825 -1.0795,-1.27 -2.8575,-1.27 -1.17475,0 -2.06375,0.5715 -0.889,0.53975 -1.397,1.68275 -0.47625,1.11125 -0.47625,2.794 0,2.50825 1.0795,3.81 1.0795,1.27 2.8575,1.27 z"
         style="font-family:Nunito;-inkscape-font-specification:'Nunito Bold';fill:#4d4d4d"
         id="path2213" /><path
         d="m 338.93403,226.37126 q -1.68275,0 -3.01625,-0.635 -1.30175,-0.66675 -2.06375,-1.778 -0.73025,-1.11125 -0.73025,-2.50825 0,-1.7145 0.889,-2.69875 0.889,-1.016 2.88925,-1.4605 2.00025,-0.4445 5.36575,-0.4445 h 1.5875 v 2.286 h -1.55575 q -1.9685,0 -3.14325,0.1905 -1.17475,0.1905 -1.68275,0.66675 -0.47625,0.4445 -0.47625,1.27 0,1.04775 0.73025,1.7145 0.73025,0.66675 2.032,0.66675 1.04775,0 1.8415,-0.47625 0.8255,-0.508 1.30175,-1.36525 0.47625,-0.85725 0.47625,-1.9685 v -3.65125 q 0,-1.5875 -0.6985,-2.286 -0.6985,-0.6985 -2.3495,-0.6985 -0.92075,0 -2.00025,0.22225 -1.04775,0.22225 -2.2225,0.762 -0.60325,0.28575 -1.0795,0.15875 -0.4445,-0.127 -0.6985,-0.508 -0.254,-0.41275 -0.254,-0.889 0,-0.47625 0.254,-0.92075 0.254,-0.47625 0.85725,-0.6985 1.4605,-0.60325 2.794,-0.85725 1.36525,-0.254 2.4765,-0.254 2.286,0 3.7465,0.6985 1.49225,0.6985 2.2225,2.12725 0.73025,1.397 0.73025,3.6195 v 7.62 q 0,0.98425 -0.47625,1.524 -0.47625,0.508 -1.36525,0.508 -0.889,0 -1.397,-0.508 -0.47625,-0.53975 -0.47625,-1.524 v -1.524 h 0.254 q -0.22225,1.11125 -0.889,1.93675 -0.635,0.79375 -1.61925,1.23825 -0.98425,0.4445 -2.25425,0.4445 z"
         style="font-family:Nunito;-inkscape-font-specification:'Nunito Bold';fill:#4d4d4d"
         id="path2215" /><path
         d="m 356.87275,226.37126 q -1.36525,0 -2.88925,-0.28575 -1.524,-0.28575 -2.7305,-0.98425 -0.508,-0.3175 -0.73025,-0.73025 -0.1905,-0.4445 -0.15875,-0.85725 0.0635,-0.4445 0.3175,-0.762 0.28575,-0.3175 0.6985,-0.41275 0.4445,-0.0952 0.9525,0.15875 1.27,0.60325 2.38125,0.85725 1.11125,0.22225 2.19075,0.22225 1.524,0 2.25425,-0.508 0.762,-0.53975 0.762,-1.397 0,-0.73025 -0.508,-1.11125 -0.47625,-0.41275 -1.4605,-0.60325 l -3.175,-0.60325 q -1.9685,-0.381 -3.01625,-1.42875 -1.016,-1.0795 -1.016,-2.76225 0,-1.524 0.8255,-2.63525 0.85725,-1.11125 2.3495,-1.7145 1.49225,-0.60325 3.429,-0.60325 1.397,0 2.6035,0.3175 1.23825,0.28575 2.38125,0.92075 0.47625,0.254 0.635,0.66675 0.1905,0.41275 0.0953,0.85725 -0.0953,0.41275 -0.381,0.762 -0.28575,0.3175 -0.73025,0.41275 -0.41275,0.0635 -0.9525,-0.1905 -0.98425,-0.508 -1.905,-0.73025 -0.889,-0.22225 -1.7145,-0.22225 -1.55575,0 -2.31775,0.53975 -0.73025,0.53975 -0.73025,1.42875 0,0.66675 0.4445,1.11125 0.4445,0.4445 1.36525,0.60325 l 3.175,0.60325 q 2.06375,0.381 3.1115,1.397 1.0795,1.016 1.0795,2.7305 0,2.31775 -1.80975,3.65125 -1.80975,1.30175 -4.826,1.30175 z"
         style="font-family:Nunito;-inkscape-font-specification:'Nunito Bold';fill:#4d4d4d"
         id="path2217" /><path
         d="m 374.33522,226.37126 q -2.63525,0 -4.54025,-0.98425 -1.905,-0.98425 -2.95275,-2.794 -1.016,-1.80975 -1.016,-4.28625 0,-2.413 0.98425,-4.22275 1.016,-1.80975 2.76225,-2.82575 1.778,-1.04775 4.03225,-1.04775 1.651,0 2.95275,0.53975 1.3335,0.53975 2.25425,1.55575 0.9525,1.016 1.42875,2.4765 0.508,1.42875 0.508,3.2385 0,0.5715 -0.41275,0.889 -0.381,0.28575 -1.11125,0.28575 h -10.19175 v -2.286 h 8.92175 l -0.508,0.47625 q 0,-1.4605 -0.4445,-2.44475 -0.41275,-0.98425 -1.23825,-1.49225 -0.79375,-0.53975 -2.00025,-0.53975 -1.3335,0 -2.286,0.635 -0.92075,0.60325 -1.42875,1.74625 -0.47625,1.11125 -0.47625,2.667 v 0.22225 q 0,2.6035 1.2065,3.90525 1.23825,1.27 3.6195,1.27 0.8255,0 1.8415,-0.1905 1.04775,-0.22225 1.9685,-0.73025 0.66675,-0.381 1.17475,-0.3175 0.508,0.0317 0.79375,0.34925 0.3175,0.3175 0.381,0.79375 0.0635,0.4445 -0.1905,0.92075 -0.22225,0.47625 -0.79375,0.8255 -1.11125,0.6985 -2.57175,1.04775 -1.42875,0.3175 -2.667,0.3175 z"
         style="font-family:Nunito;-inkscape-font-specification:'Nunito Bold';fill:#4d4d4d"
         id="path2219" /><path
         d="m 389.86097,226.37126 q -2.032,0 -3.58775,-0.98425 -1.524,-0.98425 -2.38125,-2.794 -0.85725,-1.8415 -0.85725,-4.318 0,-2.50825 0.85725,-4.28625 0.85725,-1.80975 2.38125,-2.794 1.55575,-0.98425 3.58775,-0.98425 1.93675,0 3.3655,0.9525 1.4605,0.9525 1.9685,2.50825 h -0.34925 v -8.255 q 0,-0.98425 0.508,-1.49225 0.508,-0.508 1.4605,-0.508 0.9525,0 1.4605,0.508 0.53975,0.508 0.53975,1.49225 v 18.8595 q 0,0.98425 -0.508,1.524 -0.508,0.508 -1.4605,0.508 -0.9525,0 -1.4605,-0.508 -0.508,-0.53975 -0.508,-1.524 v -2.4765 l 0.34925,0.9525 q -0.47625,1.651 -1.93675,2.63525 -1.4605,0.98425 -3.429,0.98425 z m 1.11125,-3.01625 q 1.17475,0 2.06375,-0.5715 0.889,-0.5715 1.36525,-1.68275 0.508,-1.143 0.508,-2.82575 0,-2.54 -1.0795,-3.77825 -1.0795,-1.27 -2.8575,-1.27 -1.17475,0 -2.06375,0.5715 -0.889,0.53975 -1.397,1.68275 -0.47625,1.11125 -0.47625,2.794 0,2.50825 1.0795,3.81 1.0795,1.27 2.8575,1.27 z"
         style="font-family:Nunito;-inkscape-font-specification:'Nunito Bold';fill:#4d4d4d"
         id="path2221" /><path
         d="m 417.83266,226.30776 q -0.79375,0 -1.397,-0.41275 -0.5715,-0.41275 -0.9525,-1.27 l -5.04825,-11.71575 q -0.28575,-0.6985 -0.22225,-1.30175 0.0952,-0.60325 0.5715,-0.9525 0.508,-0.381 1.36525,-0.381 0.73025,0 1.17475,0.34925 0.4445,0.3175 0.79375,1.23825 l 4.28625,10.69975 h -0.9525 l 4.41325,-10.7315 q 0.34925,-0.889 0.79375,-1.2065 0.47625,-0.34925 1.27,-0.34925 0.6985,0 1.11125,0.381 0.41275,0.34925 0.508,0.9525 0.0953,0.5715 -0.22225,1.27 l -5.1435,11.7475 q -0.34925,0.85725 -0.9525,1.27 -0.5715,0.41275 -1.397,0.41275 z"
         style="font-family:Nunito;-inkscape-font-specification:'Nunito Bold';fill:#4d4d4d"
         id="path2223" /><path
         d="m 430.24686,226.27601 q -0.9525,0 -1.4605,-0.5715 -0.508,-0.5715 -0.508,-1.5875 v -11.65225 q 0,-1.04775 0.508,-1.5875 0.508,-0.5715 1.4605,-0.5715 0.9525,0 1.4605,0.5715 0.53975,0.53975 0.53975,1.5875 v 11.65225 q 0,1.016 -0.508,1.5875 -0.508,0.5715 -1.49225,0.5715 z m 0,-18.923 q -1.11125,0 -1.74625,-0.53975 -0.60325,-0.5715 -0.60325,-1.55575 0,-1.016 0.60325,-1.55575 0.635,-0.53975 1.74625,-0.53975 1.143,0 1.74625,0.53975 0.60325,0.53975 0.60325,1.55575 0,0.98425 -0.60325,1.55575 -0.60325,0.53975 -1.74625,0.53975 z"
         style="font-family:Nunito;-inkscape-font-specification:'Nunito Bold';fill:#4d4d4d"
         id="path2225" /><path
         d="m 442.05784,226.37126 q -1.36525,0 -2.88925,-0.28575 -1.524,-0.28575 -2.7305,-0.98425 -0.508,-0.3175 -0.73025,-0.73025 -0.1905,-0.4445 -0.15875,-0.85725 0.0635,-0.4445 0.3175,-0.762 0.28575,-0.3175 0.6985,-0.41275 0.4445,-0.0952 0.9525,0.15875 1.27,0.60325 2.38125,0.85725 1.11125,0.22225 2.19075,0.22225 1.524,0 2.25425,-0.508 0.762,-0.53975 0.762,-1.397 0,-0.73025 -0.508,-1.11125 -0.47625,-0.41275 -1.4605,-0.60325 l -3.175,-0.60325 q -1.9685,-0.381 -3.01625,-1.42875 -1.016,-1.0795 -1.016,-2.76225 0,-1.524 0.8255,-2.63525 0.85725,-1.11125 2.3495,-1.7145 1.49225,-0.60325 3.429,-0.60325 1.397,0 2.6035,0.3175 1.23825,0.28575 2.38125,0.92075 0.47625,0.254 0.635,0.66675 0.1905,0.41275 0.0953,0.85725 -0.0953,0.41275 -0.381,0.762 -0.28575,0.3175 -0.73025,0.41275 -0.41275,0.0635 -0.9525,-0.1905 -0.98425,-0.508 -1.905,-0.73025 -0.889,-0.22225 -1.7145,-0.22225 -1.55575,0 -2.31775,0.53975 -0.73025,0.53975 -0.73025,1.42875 0,0.66675 0.4445,1.11125 0.4445,0.4445 1.36525,0.60325 l 3.175,0.60325 q 2.06375,0.381 3.1115,1.397 1.0795,1.016 1.0795,2.7305 0,2.31775 -1.80975,3.65125 -1.80975,1.30175 -4.826,1.30175 z"
         style="font-family:Nunito;-inkscape-font-specification:'Nunito Bold';fill:#4d4d4d"
         id="path2227" /><path
         d="m 457.48829,226.37126 q -1.93675,0 -3.20675,-0.6985 -1.27,-0.73025 -1.905,-2.159 -0.60325,-1.42875 -0.60325,-3.556 v -7.6835 q 0,-1.016 0.508,-1.49225 0.508,-0.508 1.4605,-0.508 0.9525,0 1.4605,0.508 0.53975,0.47625 0.53975,1.49225 v 7.747 q 0,1.651 0.66675,2.44475 0.66675,0.79375 2.12725,0.79375 1.5875,0 2.6035,-1.0795 1.016,-1.11125 1.016,-2.921 v -6.985 q 0,-1.016 0.508,-1.49225 0.508,-0.508 1.4605,-0.508 0.9525,0 1.4605,0.508 0.53975,0.47625 0.53975,1.49225 v 12.0015 q 0,2.032 -1.93675,2.032 -0.92075,0 -1.42875,-0.508 -0.508,-0.53975 -0.508,-1.524 v -2.413 l 0.4445,0.9525 q -0.66675,1.7145 -2.032,2.63525 -1.3335,0.92075 -3.175,0.92075 z"
         style="font-family:Nunito;-inkscape-font-specification:'Nunito Bold';fill:#4d4d4d"
         id="path2229" /><path
         d="m 475.3635,226.37126 q -1.68275,0 -3.01625,-0.635 -1.30175,-0.66675 -2.06375,-1.778 -0.73025,-1.11125 -0.73025,-2.50825 0,-1.7145 0.889,-2.69875 0.889,-1.016 2.88925,-1.4605 2.00025,-0.4445 5.36575,-0.4445 h 1.5875 v 2.286 H 478.729 q -1.9685,0 -3.14325,0.1905 -1.17475,0.1905 -1.68275,0.66675 -0.47625,0.4445 -0.47625,1.27 0,1.04775 0.73025,1.7145 0.73025,0.66675 2.032,0.66675 1.04775,0 1.8415,-0.47625 0.8255,-0.508 1.30175,-1.36525 0.47625,-0.85725 0.47625,-1.9685 v -3.65125 q 0,-1.5875 -0.6985,-2.286 -0.6985,-0.6985 -2.3495,-0.6985 -0.92075,0 -2.00025,0.22225 -1.04775,0.22225 -2.2225,0.762 -0.60325,0.28575 -1.0795,0.15875 -0.4445,-0.127 -0.6985,-0.508 -0.254,-0.41275 -0.254,-0.889 0,-0.47625 0.254,-0.92075 0.254,-0.47625 0.85725,-0.6985 1.4605,-0.60325 2.794,-0.85725 1.36525,-0.254 2.4765,-0.254 2.286,0 3.7465,0.6985 1.49225,0.6985 2.2225,2.12725 0.73025,1.397 0.73025,3.6195 v 7.62 q 0,0.98425 -0.47625,1.524 -0.47625,0.508 -1.36525,0.508 -0.889,0 -1.397,-0.508 -0.47625,-0.53975 -0.47625,-1.524 v -1.524 h 0.254 q -0.22225,1.11125 -0.889,1.93675 -0.635,0.79375 -1.61925,1.23825 -0.98425,0.4445 -2.25425,0.4445 z"
         style="font-family:Nunito;-inkscape-font-specification:'Nunito Bold';fill:#4d4d4d"
         id="path2231" /><path
         d="m 492.92122,226.37126 q -2.63525,0 -3.96875,-1.49225 -1.3335,-1.524 -1.3335,-4.445 v -15.01775 q 0,-0.98425 0.508,-1.49225 0.508,-0.508 1.4605,-0.508 0.9525,0 1.4605,0.508 0.53975,0.508 0.53975,1.49225 v 14.82725 q 0,1.4605 0.60325,2.159 0.635,0.6985 1.778,0.6985 0.254,0 0.47625,0 0.22225,-0.0317 0.4445,-0.0635 0.4445,-0.0635 0.60325,0.254 0.15875,0.28575 0.15875,1.2065 0,0.79375 -0.3175,1.23825 -0.3175,0.4445 -1.04775,0.53975 -0.3175,0.0317 -0.66675,0.0635 -0.34925,0.0318 -0.6985,0.0318 z"
         style="font-family:Nunito;-inkscape-font-specification:'Nunito Bold';fill:#4d4d4d"
         id="path2233" /><path
         d="m 499.71566,226.27601 q -0.9525,0 -1.4605,-0.5715 -0.508,-0.5715 -0.508,-1.5875 v -11.65225 q 0,-1.04775 0.508,-1.5875 0.508,-0.5715 1.4605,-0.5715 0.9525,0 1.4605,0.5715 0.53975,0.53975 0.53975,1.5875 v 11.65225 q 0,1.016 -0.508,1.5875 -0.508,0.5715 -1.49225,0.5715 z m 0,-18.923 q -1.11125,0 -1.74625,-0.53975 -0.60325,-0.5715 -0.60325,-1.55575 0,-1.016 0.60325,-1.55575 0.635,-0.53975 1.74625,-0.53975 1.143,0 1.74625,0.53975 0.60325,0.53975 0.60325,1.55575 0,0.98425 -0.60325,1.55575 -0.60325,0.53975 -1.74625,0.53975 z"
         style="font-family:Nunito;-inkscape-font-specification:'Nunito Bold';fill:#4d4d4d"
         id="path2235" /><path
         d="m 506.79588,226.05376 q -0.60325,0 -1.016,-0.28575 -0.381,-0.3175 -0.508,-0.79375 -0.127,-0.47625 0,-1.016 0.15875,-0.5715 0.60325,-1.0795 l 8.22325,-10.31875 v 0.9525 h -7.493 q -0.73025,0 -1.143,-0.381 -0.381,-0.41275 -0.381,-1.11125 0,-0.73025 0.381,-1.11125 0.41275,-0.381 1.143,-0.381 h 9.398 q 0.6985,0 1.143,0.3175 0.4445,0.28575 0.5715,0.762 0.15875,0.47625 0.0317,1.016 -0.127,0.53975 -0.5715,1.016 l -8.382,10.4775 v -1.04775 h 7.9375 q 1.524,0 1.524,1.49225 0,0.6985 -0.41275,1.11125 -0.381,0.381 -1.11125,0.381 z"
         style="font-family:Nunito;-inkscape-font-specification:'Nunito Bold';fill:#4d4d4d"
         id="path2237" /><path
         d="m 525.84582,226.37126 q -1.68275,0 -3.01625,-0.635 -1.30175,-0.66675 -2.06375,-1.778 -0.73025,-1.11125 -0.73025,-2.50825 0,-1.7145 0.889,-2.69875 0.889,-1.016 2.88925,-1.4605 2.00025,-0.4445 5.36575,-0.4445 h 1.5875 v 2.286 h -1.55575 q -1.9685,0 -3.14325,0.1905 -1.17475,0.1905 -1.68275,0.66675 -0.47625,0.4445 -0.47625,1.27 0,1.04775 0.73025,1.7145 0.73025,0.66675 2.032,0.66675 1.04775,0 1.8415,-0.47625 0.8255,-0.508 1.30175,-1.36525 0.47625,-0.85725 0.47625,-1.9685 v -3.65125 q 0,-1.5875 -0.6985,-2.286 -0.6985,-0.6985 -2.3495,-0.6985 -0.92075,0 -2.00025,0.22225 -1.04775,0.22225 -2.2225,0.762 -0.60325,0.28575 -1.0795,0.15875 -0.4445,-0.127 -0.6985,-0.508 -0.254,-0.41275 -0.254,-0.889 0,-0.47625 0.254,-0.92075 0.254,-0.47625 0.85725,-0.6985 1.4605,-0.60325 2.794,-0.85725 1.36525,-0.254 2.4765,-0.254 2.286,0 3.7465,0.6985 1.49225,0.6985 2.2225,2.12725 0.73025,1.397 0.73025,3.6195 v 7.62 q 0,0.98425 -0.47625,1.524 -0.47625,0.508 -1.36525,0.508 -0.889,0 -1.397,-0.508 -0.47625,-0.53975 -0.47625,-1.524 v -1.524 h 0.254 q -0.22225,1.11125 -0.889,1.93675 -0.635,0.79375 -1.61925,1.23825 -0.98425,0.4445 -2.25425,0.4445 z"
         style="font-family:Nunito;-inkscape-font-specification:'Nunito Bold';fill:#4d4d4d"
         id="path2239" /><path
         d="m 545.21329,226.37126 q -2.06375,0 -3.46075,-0.6985 -1.36525,-0.6985 -2.032,-2.032 -0.66675,-1.36525 -0.66675,-3.3655 v -6.76275 h -1.651 q -0.762,0 -1.17475,-0.381 -0.41275,-0.41275 -0.41275,-1.11125 0,-0.73025 0.41275,-1.11125 0.41275,-0.381 1.17475,-0.381 h 1.651 v -2.88925 q 0,-0.98425 0.508,-1.49225 0.53975,-0.508 1.49225,-0.508 0.9525,0 1.4605,0.508 0.508,0.508 0.508,1.49225 v 2.88925 h 3.3655 q 0.762,0 1.17475,0.381 0.41275,0.381 0.41275,1.11125 0,0.6985 -0.41275,1.11125 -0.41275,0.381 -1.17475,0.381 h -3.3655 v 6.5405 q 0,1.524 0.66675,2.286 0.66675,0.762 2.159,0.762 0.53975,0 0.9525,-0.0952 0.41275,-0.0953 0.73025,-0.127 0.381,-0.0317 0.635,0.254 0.254,0.254 0.254,1.0795 0,0.635 -0.22225,1.143 -0.1905,0.47625 -0.73025,0.66675 -0.41275,0.127 -1.0795,0.22225 -0.66675,0.127 -1.17475,0.127 z"
         style="font-family:Nunito;-inkscape-font-specification:'Nunito Bold';fill:#4d4d4d"
         id="path2241" /><path
         d="m 552.67446,226.27601 q -0.9525,0 -1.4605,-0.5715 -0.508,-0.5715 -0.508,-1.5875 v -11.65225 q 0,-1.04775 0.508,-1.5875 0.508,-0.5715 1.4605,-0.5715 0.9525,0 1.4605,0.5715 0.53975,0.53975 0.53975,1.5875 v 11.65225 q 0,1.016 -0.508,1.5875 -0.508,0.5715 -1.49225,0.5715 z m 0,-18.923 q -1.11125,0 -1.74625,-0.53975 -0.60325,-0.5715 -0.60325,-1.55575 0,-1.016 0.60325,-1.55575 0.635,-0.53975 1.74625,-0.53975 1.143,0 1.74625,0.53975 0.60325,0.53975 0.60325,1.55575 0,0.98425 -0.60325,1.55575 -0.60325,0.53975 -1.74625,0.53975 z"
         style="font-family:Nunito;-inkscape-font-specification:'Nunito Bold';fill:#4d4d4d"
         id="path2243" /><path
         d="m 565.88243,226.37126 q -2.413,0 -4.191,-0.98425 -1.778,-0.98425 -2.76225,-2.794 -0.98425,-1.8415 -0.98425,-4.318 0,-1.87325 0.53975,-3.33375 0.5715,-1.49225 1.61925,-2.54 1.04775,-1.0795 2.50825,-1.61925 1.4605,-0.5715 3.27025,-0.5715 2.413,0 4.191,0.98425 1.778,0.98425 2.76225,2.794 0.98425,1.80975 0.98425,4.28625 0,1.87325 -0.5715,3.3655 -0.53975,1.49225 -1.5875,2.57175 -1.04775,1.04775 -2.50825,1.61925 -1.4605,0.53975 -3.27025,0.53975 z m 0,-3.01625 q 1.17475,0 2.06375,-0.5715 0.889,-0.5715 1.36525,-1.68275 0.508,-1.143 0.508,-2.82575 0,-2.54 -1.0795,-3.77825 -1.0795,-1.27 -2.8575,-1.27 -1.17475,0 -2.06375,0.5715 -0.889,0.53975 -1.397,1.68275 -0.47625,1.11125 -0.47625,2.794 0,2.50825 1.0795,3.81 1.0795,1.27 2.8575,1.27 z"
         style="font-family:Nunito;-inkscape-font-specification:'Nunito Bold';fill:#4d4d4d"
         id="path2245" /><path
         d="m 579.05865,226.30776 q -0.9525,0 -1.4605,-0.508 -0.508,-0.53975 -0.508,-1.524 v -12.0015 q 0,-0.98425 0.508,-1.49225 0.508,-0.508 1.42875,-0.508 0.92075,0 1.42875,0.508 0.508,0.508 0.508,1.49225 v 2.159 l -0.34925,-0.79375 q 0.6985,-1.68275 2.159,-2.54 1.49225,-0.889 3.3655,-0.889 1.87325,0 3.07975,0.6985 1.2065,0.6985 1.80975,2.12725 0.60325,1.397 0.60325,3.556 v 7.6835 q 0,0.98425 -0.508,1.524 -0.508,0.508 -1.4605,0.508 -0.9525,0 -1.49225,-0.508 -0.508,-0.53975 -0.508,-1.524 v -7.493 q 0,-1.80975 -0.6985,-2.63525 -0.66675,-0.8255 -2.0955,-0.8255 -1.74625,0 -2.794,1.11125 -1.016,1.0795 -1.016,2.88925 v 6.95325 q 0,2.032 -2.00025,2.032 z"
         style="font-family:Nunito;-inkscape-font-specification:'Nunito Bold';fill:#4d4d4d"
         id="path2247" /><path
         d="m 601.3471,226.37126 q -1.36525,0 -2.88925,-0.28575 -1.524,-0.28575 -2.7305,-0.98425 -0.508,-0.3175 -0.73025,-0.73025 -0.1905,-0.4445 -0.15875,-0.85725 0.0635,-0.4445 0.3175,-0.762 0.28575,-0.3175 0.6985,-0.41275 0.4445,-0.0952 0.9525,0.15875 1.27,0.60325 2.38125,0.85725 1.11125,0.22225 2.19075,0.22225 1.524,0 2.25425,-0.508 0.762,-0.53975 0.762,-1.397 0,-0.73025 -0.508,-1.11125 -0.47625,-0.41275 -1.4605,-0.60325 l -3.175,-0.60325 q -1.9685,-0.381 -3.01625,-1.42875 -1.016,-1.0795 -1.016,-2.76225 0,-1.524 0.8255,-2.63525 0.85725,-1.11125 2.3495,-1.7145 1.49225,-0.60325 3.429,-0.60325 1.397,0 2.6035,0.3175 1.23825,0.28575 2.38125,0.92075 0.47625,0.254 0.635,0.66675 0.1905,0.41275 0.0953,0.85725 -0.0953,0.41275 -0.381,0.762 -0.28575,0.3175 -0.73025,0.41275 -0.41275,0.0635 -0.9525,-0.1905 -0.98425,-0.508 -1.905,-0.73025 -0.889,-0.22225 -1.7145,-0.22225 -1.55575,0 -2.31775,0.53975 -0.73025,0.53975 -0.73025,1.42875 0,0.66675 0.4445,1.11125 0.4445,0.4445 1.36525,0.60325 l 3.175,0.60325 q 2.06375,0.381 3.1115,1.397 1.0795,1.016 1.0795,2.7305 0,2.31775 -1.80975,3.65125 -1.80975,1.30175 -4.826,1.30175 z"
         style="font-family:Nunito;-inkscape-font-specification:'Nunito Bold';fill:#4d4d4d"
         id="path2249" /><path
         d="m 626.55886,226.37126 q -2.413,0 -4.191,-0.98425 -1.778,-0.98425 -2.76225,-2.794 -0.98425,-1.8415 -0.98425,-4.318 0,-1.87325 0.53975,-3.33375 0.5715,-1.49225 1.61925,-2.54 1.04775,-1.0795 2.50825,-1.61925 1.4605,-0.5715 3.27025,-0.5715 2.413,0 4.191,0.98425 1.778,0.98425 2.76225,2.794 0.98425,1.80975 0.98425,4.28625 0,1.87325 -0.5715,3.3655 -0.53975,1.49225 -1.5875,2.57175 -1.04775,1.04775 -2.50825,1.61925 -1.4605,0.53975 -3.27025,0.53975 z m 0,-3.01625 q 1.17475,0 2.06375,-0.5715 0.889,-0.5715 1.36525,-1.68275 0.508,-1.143 0.508,-2.82575 0,-2.54 -1.0795,-3.77825 -1.0795,-1.27 -2.8575,-1.27 -1.17475,0 -2.06375,0.5715 -0.889,0.53975 -1.397,1.68275 -0.47625,1.11125 -0.47625,2.794 0,2.50825 1.0795,3.81 1.0795,1.27 2.8575,1.27 z"
         style="font-family:Nunito;-inkscape-font-specification:'Nunito Bold';fill:#4d4d4d"
         id="path2251" /><path
         d="m 640.65576,226.30776 q -0.9525,0 -1.49225,-0.508 -0.508,-0.53975 -0.508,-1.524 v -10.76325 h -1.4605 q -0.762,0 -1.17475,-0.381 -0.41275,-0.41275 -0.41275,-1.11125 0,-0.73025 0.41275,-1.11125 0.41275,-0.381 1.17475,-0.381 h 2.6035 l -1.143,1.04775 v -1.0795 q 0,-3.27025 1.651,-4.8895 1.651,-1.651 4.7625,-1.93675 l 1.0795,-0.0952 q 0.635,-0.0635 1.016,0.22225 0.381,0.254 0.508,0.6985 0.127,0.41275 0.0317,0.85725 -0.0953,0.4445 -0.41275,0.79375 -0.28575,0.3175 -0.762,0.34925 l -0.4445,0.0318 q -1.80975,0.127 -2.63525,0.92075 -0.8255,0.79375 -0.8255,2.413 v 1.17475 l -0.508,-0.508 h 3.20675 q 0.762,0 1.17475,0.381 0.41275,0.381 0.41275,1.11125 0,0.6985 -0.41275,1.11125 -0.41275,0.381 -1.17475,0.381 h -2.69875 v 10.76325 q 0,2.032 -1.9685,2.032 z"
         style="font-family:Nunito;-inkscape-font-specification:'Nunito Bold';fill:#4d4d4d"
         id="path2253" /><path
         d="m 663.73796,226.37126 q -2.032,0 -3.58775,-0.98425 -1.524,-0.98425 -2.38125,-2.794 -0.85725,-1.8415 -0.85725,-4.318 0,-2.50825 0.85725,-4.28625 0.85725,-1.80975 2.38125,-2.794 1.55575,-0.98425 3.58775,-0.98425 1.93675,0 3.3655,0.9525 1.4605,0.9525 1.9685,2.50825 h -0.34925 v -8.255 q 0,-0.98425 0.508,-1.49225 0.508,-0.508 1.4605,-0.508 0.9525,0 1.4605,0.508 0.53975,0.508 0.53975,1.49225 v 18.8595 q 0,0.98425 -0.508,1.524 -0.508,0.508 -1.4605,0.508 -0.9525,0 -1.4605,-0.508 -0.508,-0.53975 -0.508,-1.524 v -2.4765 l 0.34925,0.9525 q -0.47625,1.651 -1.93675,2.63525 -1.4605,0.98425 -3.429,0.98425 z m 1.11125,-3.01625 q 1.17475,0 2.06375,-0.5715 0.889,-0.5715 1.36525,-1.68275 0.508,-1.143 0.508,-2.82575 0,-2.54 -1.0795,-3.77825 -1.0795,-1.27 -2.8575,-1.27 -1.17475,0 -2.06375,0.5715 -0.889,0.53975 -1.397,1.68275 -0.47625,1.11125 -0.47625,2.794 0,2.50825 1.0795,3.81 1.0795,1.27 2.8575,1.27 z"
         style="font-family:Nunito;-inkscape-font-specification:'Nunito Bold';fill:#4d4d4d"
         id="path2255" /><path
         d="m 684.47066,226.37126 q -2.63525,0 -4.54025,-0.98425 -1.905,-0.98425 -2.95275,-2.794 -1.016,-1.80975 -1.016,-4.28625 0,-2.413 0.98425,-4.22275 1.016,-1.80975 2.76225,-2.82575 1.778,-1.04775 4.03225,-1.04775 1.651,0 2.95275,0.53975 1.3335,0.53975 2.25425,1.55575 0.9525,1.016 1.42875,2.4765 0.508,1.42875 0.508,3.2385 0,0.5715 -0.41275,0.889 -0.381,0.28575 -1.11125,0.28575 h -10.19175 v -2.286 h 8.92175 l -0.508,0.47625 q 0,-1.4605 -0.4445,-2.44475 -0.41275,-0.98425 -1.23825,-1.49225 -0.79375,-0.53975 -2.00025,-0.53975 -1.3335,0 -2.286,0.635 -0.92075,0.60325 -1.42875,1.74625 -0.47625,1.11125 -0.47625,2.667 v 0.22225 q 0,2.6035 1.2065,3.90525 1.23825,1.27 3.6195,1.27 0.8255,0 1.8415,-0.1905 1.04775,-0.22225 1.9685,-0.73025 0.66675,-0.381 1.17475,-0.3175 0.508,0.0317 0.79375,0.34925 0.3175,0.3175 0.381,0.79375 0.0635,0.4445 -0.1905,0.92075 -0.22225,0.47625 -0.79375,0.8255 -1.11125,0.6985 -2.57175,1.04775 -1.42875,0.3175 -2.667,0.3175 z"
         style="font-family:Nunito;-inkscape-font-specification:'Nunito Bold';fill:#4d4d4d"
         id="path2257" /><path
         d="m 701.20291,226.37126 q -2.44475,0 -4.2545,-0.98425 -1.80975,-1.016 -2.794,-2.8575 -0.98425,-1.8415 -0.98425,-4.318 0,-1.87325 0.53975,-3.33375 0.5715,-1.49225 1.61925,-2.50825 1.04775,-1.04775 2.54,-1.5875 1.49225,-0.5715 3.33375,-0.5715 1.04775,0 2.25425,0.28575 1.23825,0.28575 2.31775,0.9525 0.508,0.3175 0.66675,0.762 0.15875,0.4445 0.0635,0.92075 -0.0952,0.4445 -0.41275,0.79375 -0.28575,0.3175 -0.73025,0.41275 -0.4445,0.0635 -0.98425,-0.22225 -0.6985,-0.41275 -1.42875,-0.60325 -0.73025,-0.22225 -1.397,-0.22225 -1.04775,0 -1.8415,0.34925 -0.79375,0.3175 -1.36525,0.9525 -0.53975,0.60325 -0.8255,1.524 -0.28575,0.92075 -0.28575,2.12725 0,2.3495 1.11125,3.71475 1.143,1.3335 3.20675,1.3335 0.66675,0 1.36525,-0.1905 0.73025,-0.1905 1.4605,-0.60325 0.53975,-0.28575 0.9525,-0.1905 0.4445,0.0952 0.73025,0.4445 0.28575,0.3175 0.34925,0.79375 0.0635,0.4445 -0.127,0.889 -0.15875,0.4445 -0.635,0.73025 -1.04775,0.635 -2.2225,0.92075 -1.17475,0.28575 -2.2225,0.28575 z"
         style="font-family:Nunito;-inkscape-font-specification:'Nunito Bold';fill:#4d4d4d"
         id="path2259" /><path
         d="m 710.98184,226.27601 q -0.9525,0 -1.4605,-0.5715 -0.508,-0.5715 -0.508,-1.5875 v -11.65225 q 0,-1.04775 0.508,-1.5875 0.508,-0.5715 1.4605,-0.5715 0.9525,0 1.4605,0.5715 0.53975,0.53975 0.53975,1.5875 v 11.65225 q 0,1.016 -0.508,1.5875 -0.508,0.5715 -1.49225,0.5715 z m 0,-18.923 q -1.11125,0 -1.74625,-0.53975 -0.60325,-0.5715 -0.60325,-1.55575 0,-1.016 0.60325,-1.55575 0.635,-0.53975 1.74625,-0.53975 1.143,0 1.74625,0.53975 0.60325,0.53975 0.60325,1.55575 0,0.98425 -0.60325,1.55575 -0.60325,0.53975 -1.74625,0.53975 z"
         style="font-family:Nunito;-inkscape-font-specification:'Nunito Bold';fill:#4d4d4d"
         id="path2261" /><path
         d="m 722.79281,226.37126 q -1.36525,0 -2.88925,-0.28575 -1.524,-0.28575 -2.7305,-0.98425 -0.508,-0.3175 -0.73025,-0.73025 -0.1905,-0.4445 -0.15875,-0.85725 0.0635,-0.4445 0.3175,-0.762 0.28575,-0.3175 0.6985,-0.41275 0.4445,-0.0952 0.9525,0.15875 1.27,0.60325 2.38125,0.85725 1.11125,0.22225 2.19075,0.22225 1.524,0 2.25425,-0.508 0.762,-0.53975 0.762,-1.397 0,-0.73025 -0.508,-1.11125 -0.47625,-0.41275 -1.4605,-0.60325 l -3.175,-0.60325 q -1.9685,-0.381 -3.01625,-1.42875 -1.016,-1.0795 -1.016,-2.76225 0,-1.524 0.8255,-2.63525 0.85725,-1.11125 2.3495,-1.7145 1.49225,-0.60325 3.429,-0.60325 1.397,0 2.6035,0.3175 1.23825,0.28575 2.38125,0.92075 0.47625,0.254 0.635,0.66675 0.1905,0.41275 0.0952,0.85725 -0.0952,0.41275 -0.381,0.762 -0.28575,0.3175 -0.73025,0.41275 -0.41275,0.0635 -0.9525,-0.1905 -0.98425,-0.508 -1.905,-0.73025 -0.889,-0.22225 -1.7145,-0.22225 -1.55575,0 -2.31775,0.53975 -0.73025,0.53975 -0.73025,1.42875 0,0.66675 0.4445,1.11125 0.4445,0.4445 1.36525,0.60325 l 3.175,0.60325 q 2.06375,0.381 3.1115,1.397 1.0795,1.016 1.0795,2.7305 0,2.31775 -1.80975,3.65125 -1.80975,1.30175 -4.826,1.30175 z"
         style="font-family:Nunito;-inkscape-font-specification:'Nunito Bold';fill:#4d4d4d"
         id="path2263" /><path
         d="m 734.57205,226.27601 q -0.9525,0 -1.4605,-0.5715 -0.508,-0.5715 -0.508,-1.5875 v -11.65225 q 0,-1.04775 0.508,-1.5875 0.508,-0.5715 1.4605,-0.5715 0.9525,0 1.4605,0.5715 0.53975,0.53975 0.53975,1.5875 v 11.65225 q 0,1.016 -0.508,1.5875 -0.508,0.5715 -1.49225,0.5715 z m 0,-18.923 q -1.11125,0 -1.74625,-0.53975 -0.60325,-0.5715 -0.60325,-1.55575 0,-1.016 0.60325,-1.55575 0.635,-0.53975 1.74625,-0.53975 1.143,0 1.74625,0.53975 0.60325,0.53975 0.60325,1.55575 0,0.98425 -0.60325,1.55575 -0.60325,0.53975 -1.74625,0.53975 z"
         style="font-family:Nunito;-inkscape-font-specification:'Nunito Bold';fill:#4d4d4d"
         id="path2265" /><path
         d="m 747.78002,226.37126 q -2.413,0 -4.191,-0.98425 -1.778,-0.98425 -2.76225,-2.794 -0.98425,-1.8415 -0.98425,-4.318 0,-1.87325 0.53975,-3.33375 0.5715,-1.49225 1.61925,-2.54 1.04775,-1.0795 2.50825,-1.61925 1.4605,-0.5715 3.27025,-0.5715 2.413,0 4.191,0.98425 1.778,0.98425 2.76225,2.794 0.98425,1.80975 0.98425,4.28625 0,1.87325 -0.5715,3.3655 -0.53975,1.49225 -1.5875,2.57175 -1.04775,1.04775 -2.50825,1.61925 -1.4605,0.53975 -3.27025,0.53975 z m 0,-3.01625 q 1.17475,0 2.06375,-0.5715 0.889,-0.5715 1.36525,-1.68275 0.508,-1.143 0.508,-2.82575 0,-2.54 -1.0795,-3.77825 -1.0795,-1.27 -2.8575,-1.27 -1.17475,0 -2.06375,0.5715 -0.889,0.53975 -1.397,1.68275 -0.47625,1.11125 -0.47625,2.794 0,2.50825 1.0795,3.81 1.0795,1.27 2.8575,1.27 z"
         style="font-family:Nunito;-inkscape-font-specification:'Nunito Bold';fill:#4d4d4d"
         id="path2267" /><path
         d="m 760.95624,226.30776 q -0.9525,0 -1.4605,-0.508 -0.508,-0.53975 -0.508,-1.524 v -12.0015 q 0,-0.98425 0.508,-1.49225 0.508,-0.508 1.42875,-0.508 0.92075,0 1.42875,0.508 0.508,0.508 0.508,1.49225 v 2.159 l -0.34925,-0.79375 q 0.6985,-1.68275 2.159,-2.54 1.49225,-0.889 3.3655,-0.889 1.87325,0 3.07975,0.6985 1.2065,0.6985 1.80975,2.12725 0.60325,1.397 0.60325,3.556 v 7.6835 q 0,0.98425 -0.508,1.524 -0.508,0.508 -1.4605,0.508 -0.9525,0 -1.49225,-0.508 -0.508,-0.53975 -0.508,-1.524 v -7.493 q 0,-1.80975 -0.6985,-2.63525 -0.66675,-0.8255 -2.0955,-0.8255 -1.74625,0 -2.794,1.11125 -1.016,1.0795 -1.016,2.88925 v 6.95325 q 0,2.032 -2.00025,2.032 z"
         style="font-family:Nunito;-inkscape-font-specification:'Nunito Bold';fill:#4d4d4d"
         id="path2269" /><path
         d="m 793.27765,226.37126 q -2.06375,0 -3.46075,-0.6985 -1.36525,-0.6985 -2.032,-2.032 -0.66675,-1.36525 -0.66675,-3.3655 v -6.76275 h -1.651 q -0.762,0 -1.17475,-0.381 -0.41275,-0.41275 -0.41275,-1.11125 0,-0.73025 0.41275,-1.11125 0.41275,-0.381 1.17475,-0.381 h 1.651 v -2.88925 q 0,-0.98425 0.508,-1.49225 0.53975,-0.508 1.49225,-0.508 0.9525,0 1.4605,0.508 0.508,0.508 0.508,1.49225 v 2.88925 h 3.3655 q 0.762,0 1.17475,0.381 0.41275,0.381 0.41275,1.11125 0,0.6985 -0.41275,1.11125 -0.41275,0.381 -1.17475,0.381 h -3.3655 v 6.5405 q 0,1.524 0.66675,2.286 0.66675,0.762 2.159,0.762 0.53975,0 0.9525,-0.0952 0.41275,-0.0953 0.73025,-0.127 0.381,-0.0317 0.635,0.254 0.254,0.254 0.254,1.0795 0,0.635 -0.22225,1.143 -0.1905,0.47625 -0.73025,0.66675 -0.41275,0.127 -1.0795,0.22225 -0.66675,0.127 -1.17475,0.127 z"
         style="font-family:Nunito;-inkscape-font-specification:'Nunito Bold';fill:#4d4d4d"
         id="path2271" /><path
         d="m 800.38967,226.30776 q -0.98425,0 -1.524,-0.508 -0.508,-0.53975 -0.508,-1.524 v -12.0015 q 0,-0.98425 0.508,-1.49225 0.508,-0.508 1.42875,-0.508 0.92075,0 1.42875,0.508 0.508,0.508 0.508,1.49225 v 2.00025 h -0.3175 q 0.4445,-1.905 1.74625,-2.88925 1.30175,-0.98425 3.46075,-1.17475 0.66675,-0.0635 1.04775,0.34925 0.41275,0.381 0.47625,1.2065 0.0635,0.79375 -0.381,1.30175 -0.41275,0.47625 -1.27,0.5715 l -0.6985,0.0635 q -1.93675,0.1905 -2.921,1.2065 -0.98425,0.98425 -0.98425,2.794 v 6.57225 q 0,0.98425 -0.508,1.524 -0.508,0.508 -1.49225,0.508 z"
         style="font-family:Nunito;-inkscape-font-specification:'Nunito Bold';fill:#4d4d4d"
         id="path2273" /><path
         d="m 818.20132,226.37126 q -2.63525,0 -4.54025,-0.98425 -1.905,-0.98425 -2.95275,-2.794 -1.016,-1.80975 -1.016,-4.28625 0,-2.413 0.98425,-4.22275 1.016,-1.80975 2.76225,-2.82575 1.778,-1.04775 4.03225,-1.04775 1.651,0 2.95275,0.53975 1.3335,0.53975 2.25425,1.55575 0.9525,1.016 1.42875,2.4765 0.508,1.42875 0.508,3.2385 0,0.5715 -0.41275,0.889 -0.381,0.28575 -1.11125,0.28575 h -10.19175 v -2.286 h 8.92175 l -0.508,0.47625 q 0,-1.4605 -0.4445,-2.44475 -0.41275,-0.98425 -1.23825,-1.49225 -0.79375,-0.53975 -2.00025,-0.53975 -1.3335,0 -2.286,0.635 -0.92075,0.60325 -1.42875,1.74625 -0.47625,1.11125 -0.47625,2.667 v 0.22225 q 0,2.6035 1.2065,3.90525 1.23825,1.27 3.6195,1.27 0.8255,0 1.8415,-0.1905 1.04775,-0.22225 1.9685,-0.73025 0.66675,-0.381 1.17475,-0.3175 0.508,0.0317 0.79375,0.34925 0.3175,0.3175 0.381,0.79375 0.0635,0.4445 -0.1905,0.92075 -0.22225,0.47625 -0.79375,0.8255 -1.11125,0.6985 -2.57175,1.04775 -1.42875,0.3175 -2.667,0.3175 z"
         style="font-family:Nunito;-inkscape-font-specification:'Nunito Bold';fill:#4d4d4d"
         id="path2275" /><path
         d="m 835.40981,226.37126 q -2.63525,0 -4.54025,-0.98425 -1.905,-0.98425 -2.95275,-2.794 -1.016,-1.80975 -1.016,-4.28625 0,-2.413 0.98425,-4.22275 1.016,-1.80975 2.76225,-2.82575 1.778,-1.04775 4.03225,-1.04775 1.651,0 2.95275,0.53975 1.3335,0.53975 2.25425,1.55575 0.9525,1.016 1.42875,2.4765 0.508,1.42875 0.508,3.2385 0,0.5715 -0.41275,0.889 -0.381,0.28575 -1.11125,0.28575 h -10.19175 v -2.286 h 8.92175 l -0.508,0.47625 q 0,-1.4605 -0.4445,-2.44475 -0.41275,-0.98425 -1.23825,-1.49225 -0.79375,-0.53975 -2.00025,-0.53975 -1.3335,0 -2.286,0.635 -0.92075,0.60325 -1.42875,1.74625 -0.47625,1.11125 -0.47625,2.667 v 0.22225 q 0,2.6035 1.2065,3.90525 1.23825,1.27 3.6195,1.27 0.8255,0 1.8415,-0.1905 1.04775,-0.22225 1.9685,-0.73025 0.66675,-0.381 1.17475,-0.3175 0.508,0.0317 0.79375,0.34925 0.3175,0.3175 0.381,0.79375 0.0635,0.4445 -0.1905,0.92075 -0.22225,0.47625 -0.79375,0.8255 -1.11125,0.6985 -2.57175,1.04775 -1.42875,0.3175 -2.667,0.3175 z"
         style="font-family:Nunito;-inkscape-font-specification:'Nunito Bold';fill:#4d4d4d"
         id="path2277" /><path
         d="m 850.64981,226.37126 q -1.36525,0 -2.88925,-0.28575 -1.524,-0.28575 -2.7305,-0.98425 -0.508,-0.3175 -0.73025,-0.73025 -0.1905,-0.4445 -0.15875,-0.85725 0.0635,-0.4445 0.3175,-0.762 0.28575,-0.3175 0.6985,-0.41275 0.4445,-0.0952 0.9525,0.15875 1.27,0.60325 2.38125,0.85725 1.11125,0.22225 2.19075,0.22225 1.524,0 2.25425,-0.508 0.762,-0.53975 0.762,-1.397 0,-0.73025 -0.508,-1.11125 -0.47625,-0.41275 -1.4605,-0.60325 l -3.175,-0.60325 q -1.9685,-0.381 -3.01625,-1.42875 -1.016,-1.0795 -1.016,-2.76225 0,-1.524 0.8255,-2.63525 0.85725,-1.11125 2.3495,-1.7145 1.49225,-0.60325 3.429,-0.60325 1.397,0 2.6035,0.3175 1.23825,0.28575 2.38125,0.92075 0.47625,0.254 0.635,0.66675 0.1905,0.41275 0.0953,0.85725 -0.0953,0.41275 -0.381,0.762 -0.28575,0.3175 -0.73025,0.41275 -0.41275,0.0635 -0.9525,-0.1905 -0.98425,-0.508 -1.905,-0.73025 -0.889,-0.22225 -1.7145,-0.22225 -1.55575,0 -2.31775,0.53975 -0.73025,0.53975 -0.73025,1.42875 0,0.66675 0.4445,1.11125 0.4445,0.4445 1.36525,0.60325 l 3.175,0.60325 q 2.06375,0.381 3.1115,1.397 1.0795,1.016 1.0795,2.7305 0,2.31775 -1.80975,3.65125 -1.80975,1.30175 -4.826,1.30175 z"
         style="font-family:Nunito;-inkscape-font-specification:'Nunito Bold';fill:#4d4d4d"
         id="path2279" /></g></g></svg>
